<svg width="153" height="38" fill="none" xmlns="http://www.w3.org/2000/svg"><path d="M121.873 11.39h-9.033v25.898h9.033V11.39ZM22.26 13.046c0 3.451-2.083 5.059-6.555 5.059H9.447V7.927h6.258c4.472 0 6.556 1.626 6.556 5.119Zm9.151-.058c0-7.966-5.55-12.534-15.228-12.534H0v36.834h9.45V25.581h6.733c9.821 0 15.23-4.471 15.23-12.593m19.888 11.351c0 4.462-1.868 7.02-5.126 7.02s-5.127-2.493-5.127-7.02c0-4.527 1.821-7.02 5.127-7.02s5.127 2.559 5.127 7.02Zm9.093 0c0-8.044-5.847-13.662-14.217-13.662-8.37 0-14.22 5.49-14.22 13.662 0 8.173 5.714 13.663 14.22 13.663s14.217-5.49 14.217-13.663Zm11.009-6.002c0-1.381 1.204-2.207 3.22-2.207 2.892 0 4.741 1.093 5.243 3.083l7.332-.22c-.675-5.292-5.173-8.316-12.396-8.316-7.224 0-11.718 3.485-11.718 8.67 0 4.816 2.683 7.116 9.562 8.197l3.931.595c1.84.296 2.696 1.035 2.696 2.323 0 1.036-.94 2.146-3.579 2.146-2.91 0-4.83-1.25-5.31-3.444l-7.805.11C63.209 34.828 67.924 38 75.576 38s12.016-3.175 12.016-8.491c0-4.733-2.993-7.512-9.151-8.496l-5.168-.89c-1.171-.156-1.87-.823-1.87-1.786Zm29.827 19.665c3.19 0 5.494-.667 7.671-2.228v-5.639c-1.361.51-2.58.75-3.802.75-2.248 0-3.34-1.13-3.34-3.454V17.44h6.904v-6.047h-6.904V4.08h-5.53l-.835 3.222c-.695 2.582-1.603 4.065-4.415 4.502l-1.704.257v5.376h3.57v12.785c0 6.428 4.56 7.778 8.387 7.778m11.55-31.118h9.151V.454h-9.151v6.428Zm31.677 15.086h-10.017l.051-.348c.436-3.047 2.208-4.658 5.122-4.658 3.173 0 4.712 2.353 4.829 4.687l.015.32ZM153 25.995v-2.37c0-3.575-1.199-6.812-3.378-9.114-2.372-2.51-5.792-3.834-9.888-3.834-8.204 0-14.16 5.921-14.16 14.078s5.605 13.247 14.278 13.247c6.79 0 11.469-3.23 12.894-8.875l-7.169-.66c-.946 2.012-2.658 2.952-5.367 2.952-3.374 0-5.611-1.953-5.839-5.098l-.023-.326H153Z" fill="#A81E22"/></svg>