<?xml version="1.0" encoding="UTF-8" standalone="no"?>
<svg
   xmlns:dc="http://purl.org/dc/elements/1.1/"
   xmlns:cc="http://creativecommons.org/ns#"
   xmlns:rdf="http://www.w3.org/1999/02/22-rdf-syntax-ns#"
   xmlns:svg="http://www.w3.org/2000/svg"
   xmlns="http://www.w3.org/2000/svg"
   xmlns:sodipodi="http://sodipodi.sourceforge.net/DTD/sodipodi-0.dtd"
   xmlns:inkscape="http://www.inkscape.org/namespaces/inkscape"
   version="1.1"
   id="svg2"
   xml:space="preserve"
   width="860.28003"
   height="456.54666"
   viewBox="0 0 860.28003 456.54666"
   sodipodi:docname="online eftpos_Worldline_logo_BLK.eps"><metadata
     id="metadata8"><rdf:RDF><cc:Work
         rdf:about=""><dc:format>image/svg+xml</dc:format><dc:type
           rdf:resource="http://purl.org/dc/dcmitype/StillImage" /></cc:Work></rdf:RDF></metadata><defs
     id="defs6" /><sodipodi:namedview
     pagecolor="#ffffff"
     bordercolor="#666666"
     borderopacity="1"
     objecttolerance="10"
     gridtolerance="10"
     guidetolerance="10"
     inkscape:pageopacity="0"
     inkscape:pageshadow="2"
     inkscape:window-width="640"
     inkscape:window-height="480"
     id="namedview4" /><g
     id="g10"
     inkscape:groupmode="layer"
     inkscape:label="ink_ext_XXXXXX"
     transform="matrix(1.3333333,0,0,-1.3333333,0,456.54667)"><g
       id="g12"
       transform="scale(0.1)"><path
         d="m 451.117,2251.73 c -144.121,0 -191.644,-128.27 -191.644,-345.84 0,-216.14 47.523,-344.41 191.644,-344.41 144.121,0 191.641,128.27 191.641,344.41 0,217.57 -47.52,345.84 -191.641,345.84 m -4.316,-739.23 c -198.86,0 -247.895,177.25 -247.895,394.82 0,216.14 49.035,393.38 256.524,393.38 198.863,0 247.894,-177.24 247.894,-393.38 0,-217.57 -49.031,-394.82 -256.523,-394.82"
         style="fill:#231f20;fill-opacity:1;fill-rule:nonzero;stroke:none"
         id="path14" /><path
         d="m 834.438,2283.45 h 54.8 v -113.86 h 2.887 c 25.926,66.32 89.297,131.14 191.645,131.14 106.6,0 190.21,-60.5 190.21,-203.18 v -567.78 h -54.8 v 541.85 c 0,133.99 -56.18,180.14 -149.83,180.14 -115.287,0 -180.112,-108.1 -180.112,-239.25 v -482.74 h -54.8 v 753.68"
         style="fill:#231f20;fill-opacity:1;fill-rule:nonzero;stroke:none"
         id="path16" /><path
         d="m 1429.61,1529.76 h 54.8 v 1028.9 h -54.8 v -1028.9"
         style="fill:#231f20;fill-opacity:1;fill-rule:nonzero;stroke:none"
         id="path18" /><path
         d="m 1645.8,2411.67 h 54.8 v 146.99 h -54.8 z m 0,-881.91 h 54.8 v 753.71 h -54.8 v -753.71"
         style="fill:#231f20;fill-opacity:1;fill-rule:nonzero;stroke:none"
         id="path20" /><path
         d="m 1856.19,2283.45 h 54.73 v -113.86 h 2.95 c 25.93,66.32 89.3,131.14 191.6,131.14 106.64,0 190.25,-60.5 190.25,-203.18 v -567.78 h -54.8 v 541.85 c 0,133.99 -56.17,180.14 -149.86,180.14 -115.25,0 -180.14,-108.1 -180.14,-239.25 v -482.74 h -54.73 v 753.68"
         style="fill:#231f20;fill-opacity:1;fill-rule:nonzero;stroke:none"
         id="path22" /><path
         d="m 2853.37,1959.18 c 0,136.9 -21.61,292.56 -177.24,292.56 -167.17,0 -188.76,-194.54 -188.76,-292.56 z m -366,-48.97 c 0,-121.01 1.43,-348.72 177.23,-348.72 158.53,0 184.46,158.51 184.46,214.74 h 54.74 c 0,-115.31 -63.39,-263.74 -233.44,-263.74 -194.52,0 -243.5,158.52 -243.5,415 0,230.6 82.1,373.22 252.15,373.22 177.25,0 234.93,-146.94 234.93,-390.5 h -426.57"
         style="fill:#231f20;fill-opacity:1;fill-rule:nonzero;stroke:none"
         id="path24" /><path
         d="m 3421.2,1996.7 v 41.78 c 0,86.43 -27.42,188.78 -134.02,188.78 -126.84,0 -141.23,-155.64 -141.23,-201.74 v -28.82 z m -279.59,-95.13 c 0,-118.18 0,-296.86 148.43,-296.86 115.32,0 131.16,121.05 131.16,178.68 h 121.01 c 0,-82.11 -48.97,-273.77 -259.36,-273.77 -188.82,0 -268.06,131.09 -268.06,396.27 0,193.1 37.52,416.43 275.25,416.43 236.33,0 257.94,-206.06 257.94,-371.77 v -48.98 h -406.37"
         style="fill:#231f20;fill-opacity:1;fill-rule:nonzero;stroke:none"
         id="path26" /><path
         d="m 3719.47,2207.07 h -112.42 v 95.13 h 112.42 v 90.76 c 0,116.75 50.43,177.25 167.17,177.25 h 87.87 v -103.73 h -56.17 c -51.87,0 -77.82,-20.23 -77.82,-73.52 v -90.76 h 132.59 v -95.13 h -132.59 v -677.29 h -121.05 v 677.29"
         style="fill:#231f20;fill-opacity:1;fill-rule:nonzero;stroke:none"
         id="path28" /><path
         d="m 4095.58,2526.98 h 121.06 V 2302.2 h 133.97 v -95.13 h -133.97 v -495.73 c 0,-61.94 15.87,-86.44 79.23,-86.44 25.93,0 40.35,2.88 53.35,4.34 v -99.46 c -15.88,-2.88 -47.57,-8.66 -98,-8.66 -125.39,0 -155.64,51.87 -155.64,152.76 v 533.19 h -112.42 v 95.13 h 112.42 v 224.78"
         style="fill:#231f20;fill-opacity:1;fill-rule:nonzero;stroke:none"
         id="path30" /><path
         d="m 4705.16,1613.36 c 112.36,0 141.23,118.17 141.23,317.03 0,170.05 -28.87,288.18 -141.23,288.18 -134.02,0 -155.63,-126.77 -155.63,-302.57 0,-149.89 25.92,-302.64 155.63,-302.64 m -269.49,688.83 h 115.28 v -95.15 h 2.89 c 15.84,57.69 83.55,115.31 167.16,115.31 183.02,0 252.16,-162.85 252.16,-391.96 0,-175.79 -51.87,-420.8 -252.16,-420.8 -69.19,0 -134.03,41.78 -161.4,108.09 h -2.88 v -341.54 h -121.05 v 1026.05"
         style="fill:#231f20;fill-opacity:1;fill-rule:nonzero;stroke:none"
         id="path32" /><path
         d="m 5497.75,1916 c 0,167.16 -24.49,311.27 -154.2,311.27 -122.51,0 -148.44,-144.11 -148.44,-311.27 0,-167.21 24.5,-311.28 148.44,-311.28 128.27,0 154.2,144.07 154.2,311.28 m -151.32,406.35 c 223.34,0 278.15,-188.76 278.15,-406.35 0,-217.63 -56.21,-406.41 -278.15,-406.41 -223.34,0 -278.08,188.78 -278.08,406.41 0,217.59 56.18,406.35 278.08,406.35"
         style="fill:#231f20;fill-opacity:1;fill-rule:nonzero;stroke:none"
         id="path34" /><path
         d="m 6079.91,2075.94 c 0,97.97 -25.93,151.32 -113.86,151.32 -38.89,0 -125.38,-10.08 -125.38,-118.2 0,-90.74 95.12,-108.08 190.26,-139.78 93.65,-31.69 188.76,-64.82 188.76,-217.59 0,-162.83 -105.2,-242.07 -249.32,-242.07 -262.23,0 -265.11,194.55 -265.11,273.77 h 120.99 c 0,-93.68 25.99,-178.68 144.12,-178.68 38.89,0 128.27,18.73 128.27,128.27 0,103.71 -95.15,125.37 -188.78,157.06 -93.69,31.7 -190.21,59.08 -190.21,219.02 0,144.12 112.37,213.28 246.4,213.28 224.79,0 233.49,-155.59 234.87,-246.4 h -121.01"
         style="fill:#231f20;fill-opacity:1;fill-rule:nonzero;stroke:none"
         id="path36" /><path
         d="m 269.008,1085.41 h 65.605 c 39.801,0 57.766,19.82 57.766,46.05 0,26.49 -18.543,41.45 -35.524,42.38 v 1.68 c 15.704,4.01 28.833,14.72 28.833,36.1 0,25.33 -17.543,44.97 -53.997,44.97 h -62.683 z m 25.828,22.16 v 54.82 h 38.207 c 20.727,0 33.672,-13.37 33.672,-29.68 0,-14.38 -9.781,-25.14 -34.602,-25.14 z m 0,74.96 v 52.08 h 35.262 c 20.488,0 30.265,-10.78 30.265,-25 0,-16.53 -13.531,-27.08 -30.929,-27.08 z m 174.082,74.06 62.117,-103.98 v -67.2 h 25.727 v 67.2 l 62.121,103.98 h -29.356 l -44.699,-77.81 h -1.855 l -44.719,77.81 z m 385.887,-171.18 h 26.07 l 36.031,128.21 h 1.328 l 36.028,-128.21 h 25.992 l 47.566,171.18 h -27.24 l -33.271,-132.65 h -1.59 l -34.703,132.65 h -26.895 l -34.703,-132.57 h -1.59 l -33.351,132.57 H 807.32 Z M 1250.81,1171 c 0,54.74 -32.76,87.93 -77.08,87.93 -44.46,0 -77.14,-33.19 -77.14,-87.93 0,-54.66 32.68,-87.93 77.14,-87.93 44.32,0 77.08,33.19 77.08,87.93 m -25.58,0 c 0,-41.72 -22.06,-64.36 -51.5,-64.36 -29.5,0 -51.47,22.64 -51.47,64.36 0,41.72 21.97,64.35 51.47,64.35 29.44,0 51.5,-22.63 51.5,-64.35 m 116.84,-85.59 h 25.83 v 64.79 h 35.1 1.67 l 34.76,-64.79 h 29.42 l -37.95,69.3 c 20.99,7.76 31.43,25.24 31.43,48.23 0,31.51 -19.55,53.65 -59.25,53.65 h -61.01 z m 25.83,87.02 v 62.02 h 32.41 c 25.51,0 36.03,-12.13 36.03,-31.51 0,-19.32 -10.52,-30.51 -35.68,-30.51 z m 185.1,-87.02 h 103.4 v 22.24 h -77.57 v 148.94 H 1553 Z m 247.4,0 c 52.15,0 82.32,32.34 82.32,85.85 0,53.23 -30.17,85.33 -80.57,85.33 h -57.16 v -171.18 z m -29.58,22.56 v 126.05 h 29.74 c 37.46,0 56.75,-22.4 56.75,-62.76 0,-40.55 -19.29,-63.29 -58.33,-63.29 z m 203.16,-22.56 h 103.38 v 22.24 h -77.56 v 148.94 h -25.82 z m 217.81,171.18 h -25.83 v -171.18 h 25.83 z m 234.93,0 h -25.57 v -125.71 h -1.59 l -87.1,125.71 h -23.9 v -171.18 h 25.83 v 125.55 h 1.58 l 87.02,-125.55 h 23.73 z m 96.78,-171.18 h 108.33 v 22.24 h -82.5 v 52.4 h 75.89 v 22.16 h -75.89 v 52.14 h 81.49 v 22.24 H 2523.5 v -171.18"
         style="fill:#231f20;fill-opacity:1;fill-rule:nonzero;stroke:none"
         id="path38" /></g></g></svg>
